<svg width="1379" height="1371" xmlns="http://www.w3.org/2000/svg" xmlns:xlink="http://www.w3.org/1999/xlink" xml:space="preserve" overflow="hidden"><g transform="translate(-64 -91)"><g><path d="M747.653 164 771.99 178.794C892.662 260.368 972 398.512 972 555.198 972 570.866 971.207 586.349 969.658 601.609L968.639 608.291 930.306 589.813C876.032 566.844 816.361 554.141 753.724 554.141 675.429 554.141 601.766 573.988 537.487 608.928L537.369 609 535.342 595.716C533.794 580.457 533 564.974 533 549.305 533 392.619 612.339 254.475 733.011 172.901L747.653 164Z" fill="#889D75" fill-rule="evenodd" fill-opacity="1"/><path d="M968.453 608 969.776 608.638C1085.57 671.539 1170.93 783.349 1198.15 916.342L1203 948.133 1202.88 948.206C1138.55 983.151 1064.83 1003 986.479 1003 908.125 1003 834.406 983.151 770.077 948.206L757 940.261 771.654 931.359C868.265 866.09 938.403 764.611 962.593 646.395L968.453 608Z" fill="#7D9667" fill-rule="evenodd" fill-opacity="1"/><path d="M536.979 609 541.828 640.777C566.005 758.939 636.103 860.371 732.659 925.609L757 940.398 734.234 954.231C669.943 989.16 596.266 1009 517.956 1009 455.307 1009 395.624 996.302 341.34 973.339L303 954.868 308.856 916.49C333.033 798.329 403.131 696.897 499.687 631.658L536.979 609Z" fill="#7F827A" fill-rule="evenodd" fill-opacity="1"/><path d="M986.119 95.9999C1236.79 95.9999 1440 298.993 1440 549.397 1440 705.9 1360.62 843.883 1239.89 925.361L1202.58 948 1197.73 916.25C1170.53 783.432 1085.18 671.769 969.42 608.951L968.097 608.314 969.117 601.64C970.667 586.399 971.46 570.934 971.46 555.283 971.46 398.781 892.082 260.798 771.349 179.319L747 164.543 769.773 150.722C834.085 115.823 907.784 95.9999 986.119 95.9999Z" fill="#AEC99A" fill-rule="evenodd" fill-opacity="1"/><path d="M518.016 102C596.202 102 669.762 121.83 733.951 156.741L747 164.678 732.378 173.572C611.875 255.078 532.647 393.108 532.647 549.664 532.647 565.32 533.44 580.79 534.986 596.037L537.01 609.31 499.777 631.956C403.374 697.161 333.388 798.541 309.25 916.642L303.403 955 302.082 954.363C160.865 877.559 65 727.764 65 555.552 65 305.062 267.822 102 518.016 102Z" fill="#B3A7B8" fill-rule="evenodd" fill-opacity="1"/><path d="M753.22 554C815.817 554 875.451 566.69 929.691 589.639L968 608.099 962.148 646.452C937.991 764.54 867.951 865.909 771.474 931.108L756.841 940 732.519 925.22C636.043 860.022 566.002 758.653 541.845 640.565L537 608.808 537.119 608.735C601.357 573.828 674.974 554 753.22 554Z" fill="#667B52" fill-rule="evenodd" fill-opacity="1"/><path d="M757.122 940 770.185 947.951C834.442 982.925 908.08 1002.79 986.349 1002.79 1064.62 1002.79 1138.26 982.925 1202.51 947.951L1202.63 947.879 1204.66 961.176C1206.21 976.45 1207 991.949 1207 1007.63 1207 1258.57 1003.96 1462 753.5 1462 503.039 1462 300 1258.57 300 1007.63 300 991.949 300.793 976.45 302.342 961.176L303.36 954.488 341.68 972.983C395.936 995.976 455.588 1008.69 518.203 1008.69 596.472 1008.69 670.11 988.824 734.368 953.85L757.122 940Z" fill="#AEB6A6" fill-rule="evenodd" fill-opacity="1"/></g></g></svg>