<svg width="1128" height="1082" xmlns="http://www.w3.org/2000/svg" xmlns:xlink="http://www.w3.org/1999/xlink" xml:space="preserve" overflow="hidden"><g transform="translate(-2300 -1292)"><g><path d="M2678.36 1638.67C2737.39 1639.66 2797.01 1654.98 2852.01 1686.08L2871.05 1698.14 2868.85 1699.37C2818.96 1730.55 2775.92 1774.28 2744.93 1829.1 2720.14 1872.95 2705.41 1919.76 2700 1966.84L2698.7 1986.52 2681.81 1978.06C2571.8 1915.87 2506.32 1805.31 2496.97 1688.16L2496.83 1683.62 2508.31 1677.19C2560.91 1650.99 2619.34 1637.67 2678.36 1638.67Z" fill="#859A6E" fill-rule="evenodd" fill-opacity="1"/><path d="M3069.04 1643.78C3116.1 1644.57 3163.55 1654.51 3208.71 1674.31L3226.93 1683.43 3225.75 1701.32C3220.32 1748.57 3205.54 1795.53 3180.67 1839.53 3149.57 1894.54 3106.39 1938.41 3056.33 1969.7L3036.99 1980.52 3036.85 1975.98C3028.44 1870.55 2974.56 1770.45 2883.67 1706.14L2871.05 1698.14 2899.57 1682.18C2951.99 1656.07 3010.22 1642.78 3069.04 1643.78Z" fill="#798E63" fill-rule="evenodd" fill-opacity="1"/><path d="M3036.99 1980.52 3037.96 2011.29C3036.96 2070.31 3021.64 2129.94 2990.55 2184.94 2959.45 2239.94 2916.26 2283.81 2866.2 2315.1L2865.75 2315.35 2851.45 2306.28C2750.8 2235.08 2695.69 2119.82 2697.68 2002.17L2698.7 1986.52 2715.32 1994.84C2817.28 2039.56 2930.83 2034.11 3025.51 1986.95L3036.99 1980.52Z" fill="#80817B" fill-rule="evenodd" fill-opacity="1"/><path d="M2868.48 1293.26C2927.51 1294.26 2987.14 1309.58 3042.14 1340.67 3163.15 1409.08 3230.28 1536.02 3228.08 1665.88L3226.93 1683.43 3208.71 1674.31C3107.1 1629.75 2993.93 1635.18 2899.57 1682.18L2871.05 1698.14 2852.01 1686.08C2742.01 1623.89 2613.51 1624.8 2508.31 1677.19L2496.83 1683.62 2495.86 1652.86C2496.86 1593.83 2512.18 1534.2 2543.28 1479.2 2611.69 1358.19 2738.63 1291.06 2868.48 1293.26Z" fill="#A3BC8B" fill-rule="evenodd" fill-opacity="1"/><path d="M3226.93 1683.43 3242.11 1691.03C3417.53 1790.2 3479.35 2012.8 3380.18 2188.22 3281.01 2363.64 3058.41 2425.45 2882.99 2326.28L2865.75 2315.35 2866.2 2315.1C2916.26 2283.81 2959.45 2239.94 2990.54 2184.94 3021.64 2129.94 3036.96 2070.31 3037.96 2011.28L3036.99 1980.52 3056.33 1969.7C3106.39 1938.41 3149.57 1894.54 3180.67 1839.53 3205.54 1795.53 3220.32 1748.57 3225.75 1701.32L3226.93 1683.43Z" fill="#AFB6A8" fill-rule="evenodd" fill-opacity="1"/><path d="M2496.83 1683.62 2496.97 1688.16C2506.32 1805.31 2571.8 1915.87 2681.81 1978.06L2698.7 1986.52 2697.68 2002.17C2695.69 2119.82 2750.8 2235.08 2851.45 2306.28L2865.75 2315.35 2835.38 2332.36C2730.19 2384.75 2601.69 2385.66 2491.68 2323.47 2315.67 2223.97 2253.65 2000.62 2353.15 1824.61 2384.25 1769.61 2427.44 1725.73 2477.5 1694.44L2496.83 1683.62Z" fill="#B2A7B6" fill-rule="evenodd" fill-opacity="1"/><path d="M2871.05 1698.14 2883.67 1706.14C2974.56 1770.45 3028.44 1870.55 3036.85 1975.98L3036.99 1980.52 3025.51 1986.95C2930.83 2034.1 2817.28 2039.55 2715.32 1994.84L2698.7 1986.52 2700 1966.84C2705.41 1919.76 2720.14 1872.95 2744.93 1829.1 2775.92 1774.28 2818.96 1730.55 2868.85 1699.37L2871.05 1698.14Z" fill="#667A51" fill-rule="evenodd" fill-opacity="1"/></g></g></svg>