<svg width="1384" height="935" xmlns="http://www.w3.org/2000/svg" xmlns:xlink="http://www.w3.org/1999/xlink" xml:space="preserve" overflow="hidden"><g transform="translate(-1677 -1356)"><g><path d="M2132.73 1370C2211.04 1370 2284.72 1389.85 2349.01 1424.8L2364 1433.91 2341.58 1447.54C2220.88 1529.12 2141.53 1667.29 2141.53 1824 2141.53 1980.71 2220.88 2118.88 2341.58 2200.46L2364 2214.09 2349.01 2223.2C2284.72 2258.15 2211.04 2278 2132.73 2278 1882.14 2278 1679 2074.74 1679 1824 1679 1573.26 1882.14 1370 2132.73 1370Z" fill="#B15FD5" fill-rule="evenodd" fill-opacity="0.4"/><path d="M2363.5 1434 2385.92 1447.63C2506.64 1529.19 2586 1667.33 2586 1824 2586 1980.67 2506.64 2118.81 2385.92 2200.37L2363.5 2214 2341.08 2200.37C2220.36 2118.81 2141 1980.67 2141 1824 2141 1667.33 2220.36 1529.19 2341.08 1447.63Z" fill="#B15FD5" fill-rule="evenodd" fill-opacity="0.501961"/><path d="M2363.5 1434 2385.92 1447.63C2506.64 1529.19 2586 1667.33 2586 1824 2586 1980.67 2506.64 2118.81 2385.92 2200.37L2363.5 2214 2341.08 2200.37C2220.36 2118.81 2141 1980.67 2141 1824 2141 1667.33 2220.36 1529.19 2341.08 1447.63L2363.5 1434Z" fill="#5A932B" fill-rule="evenodd" fill-opacity="0.501961"/><path d="M2595.77 1370.5C2846.36 1370.5 3049.5 1573.76 3049.5 1824.5 3049.5 2075.24 2846.36 2278.5 2595.77 2278.5 2517.46 2278.5 2443.78 2258.65 2379.49 2223.7L2364.5 2214.59 2386.92 2200.96C2507.62 2119.38 2586.97 1981.21 2586.97 1824.5 2586.97 1667.79 2507.62 1529.62 2386.92 1448.04L2364.5 1434.41 2379.49 1425.3C2443.78 1390.35 2517.46 1370.5 2595.77 1370.5Z" stroke="#568E25" stroke-width="20.625" stroke-linecap="butt" stroke-linejoin="miter" stroke-miterlimit="8" stroke-opacity="1" fill="#5A932B" fill-rule="evenodd" fill-opacity="0.6"/></g></g></svg>