<svg width="1128" height="1064" xmlns="http://www.w3.org/2000/svg" xmlns:xlink="http://www.w3.org/1999/xlink" xml:space="preserve" overflow="hidden"><defs><clipPath id="clip0"><rect x="1489" y="256" width="1128" height="1064"/></clipPath><clipPath id="clip1"><rect x="1489" y="256" width="1128" height="1064"/></clipPath></defs><g clip-path="url(#clip0)" transform="translate(-1489 -256)"><g clip-path="url(#clip1)"><path d="M183.048 0 204.688 13.1466C302.07 78.9365 366.096 190.351 366.096 316.719L364.96 339.224 362.813 337.919C311.113 309.835 251.868 293.882 188.895 293.882 125.924 293.882 66.6774 309.835 14.9781 337.919L1.48435 346.117 0 316.719C0 190.351 64.0263 78.9365 161.408 13.1466L183.048 0Z" fill="#8F987F" fill-rule="evenodd" fill-opacity="1" transform="matrix(-0.477936 -0.878395 -0.878395 0.477936 2527.31 798.106)"/><path d="M181.912 0 209.848 16.9717C297.197 75.9841 357.619 171.828 368.83 282.22L369.337 292.246 357.551 299.406C305.678 327.585 246.232 343.592 183.048 343.592 119.864 343.592 60.4181 327.585 8.54485 299.406L0 294.215 21.6395 281.068C109.284 221.857 169.909 125.691 181.158 14.9265L181.912 0Z" fill="#798E63" fill-rule="evenodd" fill-opacity="1" transform="matrix(-0.477936 -0.878395 -0.878395 0.477936 2141.85 799.445)"/><path d="M176.426 0 176.832 8.0331C188.081 118.797 248.706 214.964 336.35 274.175L357.99 287.321 349.445 292.512C297.572 320.691 238.126 336.698 174.942 336.698 111.758 336.698 52.3121 320.691 0.438845 292.512L0 292.246 0.854232 275.326C12.065 164.934 72.487 69.0907 159.837 10.0783L176.426 0Z" fill="#8F7D95" fill-rule="evenodd" fill-opacity="1" transform="matrix(-0.477936 -0.878395 -0.878395 0.477936 2306.89 1117.2)"/><path d="M366.096 0C429.28 0 488.726 16.0067 540.599 44.1859L549.144 49.3769 527.505 62.5235C430.122 128.313 366.096 239.728 366.096 366.096L367.58 395.494 350.991 405.572C263.641 464.585 203.219 560.428 192.008 670.82L191.154 687.74 161.408 669.669C64.0259 603.879 0 492.464 0 366.096 0 163.907 163.907 0 366.096 0Z" fill="#CBA2E3" fill-rule="evenodd" fill-opacity="1" transform="matrix(-0.477936 -0.878395 -0.878395 0.477936 2745.65 1096.08)"/><path d="M183.048 0C385.237 0 549.144 163.907 549.144 366.096 549.144 492.464 485.118 603.879 387.736 669.669L369.337 680.847 368.83 670.82C357.619 560.428 297.197 464.585 209.848 405.572L181.912 388.601 183.048 366.096C183.048 239.728 119.022 128.313 21.6395 62.5235L0 49.3769 8.54485 44.1859C60.4181 16.0067 119.864 0 183.048 0Z" fill="#A4BD8C" fill-rule="evenodd" fill-opacity="1" transform="matrix(-0.477936 -0.878395 -0.878395 0.477936 2483.2 613.719)"/><path d="M187.411 0C250.383 0 309.629 15.9529 361.328 44.0375L363.476 45.3418 362.722 60.2683C351.473 171.032 290.848 267.199 203.203 326.41L181.564 339.556 159.924 326.41C72.2803 267.199 11.6547 171.032 0.405643 60.2683L0 52.2352 13.4938 44.0375C65.193 15.9529 124.439 0 187.411 0Z" fill="#6B795B" fill-rule="evenodd" fill-opacity="1" transform="matrix(-0.477936 -0.878395 -0.878395 0.477936 2268.46 937.26)"/><path d="M728.356 0 729.734 27.2791C729.734 228.79 566.377 392.146 364.867 392.146 163.356 392.146 0 228.79 0 27.2791L1.02963 6.89304 1.46847 7.15974C53.3417 35.3389 112.788 51.3456 175.971 51.3456 239.156 51.3456 298.601 35.3389 350.475 7.15974L359.02 1.96867 367.565 7.15974C419.438 35.3389 478.884 51.3456 542.068 51.3456 605.252 51.3456 664.697 35.3389 716.571 7.15974L728.356 0Z" fill="#AFB6A8" fill-rule="evenodd" fill-opacity="1" transform="matrix(-0.477936 -0.878395 -0.878395 0.477936 2056.73 1254.48)"/></g></g></svg>