<svg width="1385" height="935" xmlns="http://www.w3.org/2000/svg" xmlns:xlink="http://www.w3.org/1999/xlink" xml:space="preserve" overflow="hidden"><g transform="translate(-77 -1356)"><g><path d="M542.234 1370.5C620.544 1370.5 694.22 1390.35 758.511 1425.3L773.5 1434.41 751.078 1448.04C630.384 1529.62 551.031 1667.79 551.031 1824.5 551.031 1981.21 630.384 2119.38 751.078 2200.96L773.5 2214.59 758.511 2223.7C694.22 2258.65 620.544 2278.5 542.234 2278.5 291.644 2278.5 88.4998 2075.24 88.4998 1824.5 88.4998 1573.76 291.644 1370.5 542.234 1370.5Z" stroke="#B15FD5" stroke-width="20.625" stroke-linecap="butt" stroke-linejoin="miter" stroke-miterlimit="8" stroke-opacity="1" fill="#B15FD5" fill-rule="evenodd" fill-opacity="0.6"/><path d="M772.5 1434 794.925 1447.63C915.636 1529.19 995 1667.33 995 1824 995 1980.67 915.636 2118.81 794.925 2200.37L772.5 2214 750.075 2200.37C629.364 2118.81 550 1980.67 550 1824 550 1667.33 629.364 1529.19 750.075 1447.63Z" fill="#B15FD5" fill-rule="evenodd" fill-opacity="0.501961"/><path d="M773.5 1434 795.925 1447.63C916.636 1529.19 996 1667.33 996 1824 996 1980.67 916.636 2118.81 795.925 2200.37L773.5 2214 751.075 2200.37C630.364 2118.81 551 1980.67 551 1824 551 1667.33 630.364 1529.19 751.075 1447.63L773.5 1434Z" fill="#5A932B" fill-rule="evenodd" fill-opacity="0.501961"/><path d="M1004.27 1370C1254.86 1370 1458 1573.26 1458 1824 1458 2074.74 1254.86 2278 1004.27 2278 925.956 2278 852.28 2258.15 787.989 2223.2L773 2214.09 795.422 2200.46C916.116 2118.88 995.469 1980.71 995.469 1824 995.469 1667.29 916.116 1529.12 795.422 1447.54L773 1433.91 787.989 1424.8C852.28 1389.85 925.956 1370 1004.27 1370Z" fill="#5A932B" fill-rule="evenodd" fill-opacity="0.4"/></g></g></svg>