<svg width="1375" height="1334" xmlns="http://www.w3.org/2000/svg" xmlns:xlink="http://www.w3.org/1999/xlink" xml:space="preserve" overflow="hidden"><g transform="translate(-114 -77)"><g><path d="M803.5 144 826.232 157.795C935.025 231.215 1010.28 350.459 1024.24 487.803L1025 502.764 988.386 504.611C927.278 510.81 869.75 529.104 818.237 557.057L803.5 566 788.763 557.057C737.25 529.104 679.722 510.81 618.614 504.611L582 502.764 582.756 487.803C596.719 350.459 671.975 231.215 780.768 157.795L803.5 144Z" fill="#8C987B" fill-rule="evenodd" fill-opacity="1"/><path d="M572.577 503 582.412 503.496 580.824 534.89C580.824 597.452 593.522 657.052 616.483 711.261L633 745.5 616.483 779.739C593.522 833.948 580.824 893.548 580.824 956.11L582.412 987.504 572.577 988C400.289 988 250.428 892.115 173.59 750.869L171 745.5 173.59 740.131C250.428 598.885 400.289 503 572.577 503Z" fill="#976CA9" fill-rule="evenodd" fill-opacity="1"/><path d="M1034.42 503C1206.71 503 1356.57 598.885 1433.41 740.131L1436 745.5 1433.41 750.869C1356.57 892.115 1206.71 988 1034.42 988L1024.59 987.504 1026.18 956.11C1026.18 893.548 1013.48 833.948 990.517 779.739L974 745.5 990.517 711.261C1013.48 657.052 1026.18 597.452 1026.18 534.89L1024.59 503.496 1034.42 503Z" fill="#738F5A" fill-rule="evenodd" fill-opacity="1"/><path d="M803.5 925 818.237 933.943C869.75 961.896 927.278 980.19 988.386 986.389L1025 988.236 1024.24 1003.2C1010.28 1140.54 935.025 1259.78 826.232 1333.2L803.5 1347 780.768 1333.2C671.975 1259.78 596.719 1140.54 582.756 1003.2L582 988.236 618.614 986.389C679.722 980.19 737.25 961.896 788.763 933.943L803.5 925Z" fill="#7F827B" fill-rule="evenodd" fill-opacity="1"/><path d="M572.917 81.0001C651.258 81.0001 724.963 100.849 789.28 135.793L804 144.738 781.294 158.533C672.626 231.959 597.457 351.212 583.51 488.567L582.755 503.529 572.917 503.032C400.566 503.032 250.651 599.102 173.785 740.62L171.194 746 154.671 711.695C131.701 657.381 119 597.666 119 534.984 119 284.256 322.225 81.0001 572.917 81.0001Z" fill="#D19FE6" fill-rule="evenodd" fill-opacity="1"/><path d="M1034.75 81.0001C1285.07 81.0001 1488 284.256 1488 534.984 1488 597.666 1475.32 657.381 1452.38 711.695L1435.88 746 1433.29 740.62C1356.54 599.102 1206.84 503.032 1034.75 503.032L1024.92 503.529 1024.17 488.567C1010.24 351.212 935.182 231.959 826.672 158.533L804 144.738 818.698 135.793C882.922 100.849 956.519 81.0001 1034.75 81.0001Z" fill="#9CBE84" fill-rule="evenodd" fill-opacity="1"/><path d="M582.589 503 619.189 504.851C680.272 511.064 737.777 529.399 789.269 557.415L804 566.379 781.277 580.204C720.861 621.086 670.791 676.142 635.826 740.609L633.233 746 616.698 711.62C593.711 657.188 581 597.343 581 534.524L582.589 503Z" fill="#6E6969" fill-rule="evenodd" fill-opacity="1"/><path d="M1024.42 503 1026 534.524C1026 597.343 1013.35 657.188 990.462 711.62L974.001 746 971.42 740.609C936.611 676.142 886.766 621.086 826.621 580.204L804 566.379 818.665 557.415C869.926 529.399 927.173 511.064 987.982 504.851L1024.42 503Z" fill="#677857" fill-rule="evenodd" fill-opacity="1"/><path d="M171.194 746 173.785 751.371C250.651 892.677 400.566 988.603 572.917 988.603L582.755 988.107 583.51 1003.05C597.457 1140.19 672.626 1259.27 781.294 1332.58L804 1346.36 789.28 1355.29C724.963 1390.18 651.258 1410 572.917 1410 322.225 1410 119 1207.05 119 956.699 119 894.111 131.701 834.486 154.671 780.253L171.194 746Z" fill="#B3A7B7" fill-rule="evenodd" fill-opacity="1"/><path d="M633.233 746 635.826 751.369C670.791 815.57 720.861 870.4 781.277 911.113L804 924.883 789.269 933.809C737.777 961.71 680.272 979.969 619.189 986.156L582.589 988 581 956.606C581 894.046 593.711 834.447 616.698 780.238L633.233 746Z" fill="#706072" fill-rule="evenodd" fill-opacity="1"/><path d="M974.001 746 990.462 780.238C1013.35 834.447 1026 894.046 1026 956.606L1024.42 988 987.982 986.156C927.173 979.969 869.926 961.71 818.665 933.809L804 924.883 826.621 911.113C886.766 870.4 936.611 815.57 971.42 751.369L974.001 746Z" fill="#5D6A50" fill-rule="evenodd" fill-opacity="1"/><path d="M1435.88 746 1452.38 780.253C1475.32 834.486 1488 894.111 1488 956.699 1488 1207.05 1285.07 1410 1034.75 1410 956.519 1410 882.922 1390.18 818.698 1355.29L804 1346.36 826.672 1332.58C935.182 1259.27 1010.24 1140.19 1024.17 1003.05L1024.92 988.107 1034.75 988.603C1206.84 988.603 1356.54 892.677 1433.29 751.371L1435.88 746Z" fill="#ADB6A6" fill-rule="evenodd" fill-opacity="1"/><path d="M804 566.5 826.687 580.317C887.009 621.17 937 676.189 971.911 740.612L974.5 746 971.911 751.387C937 815.81 887.009 870.83 826.687 911.683L804 925.5 781.313 911.683C720.991 870.83 671 815.81 636.089 751.387L633.5 746 636.089 740.612C671 676.189 720.991 621.17 781.313 580.317L804 566.5Z" stroke="#000000" stroke-width="20.625" stroke-linecap="butt" stroke-linejoin="miter" stroke-miterlimit="8" stroke-opacity="1" fill="#575C4B" fill-rule="evenodd" fill-opacity="1"/></g></g></svg>