<svg width="1375" height="912" xmlns="http://www.w3.org/2000/svg" xmlns:xlink="http://www.w3.org/1999/xlink" xml:space="preserve" overflow="hidden"><g transform="translate(-96 -105)"><g><path d="M781.5 170 803.925 183.626C924.636 265.194 1004 403.327 1004 560 1004 716.673 924.636 854.806 803.925 936.374L781.5 950 759.075 936.374C638.364 854.806 559 716.673 559 560 559 403.327 638.364 265.194 759.075 183.626Z" fill="#B15FD5" fill-rule="evenodd" fill-opacity="0.6"/><path d="M782 170.5 804.425 184.126C925.136 265.694 1004.5 403.826 1004.5 560.5 1004.5 717.173 925.136 855.306 804.425 936.874L782 950.5 759.575 936.874C638.864 855.306 559.5 717.173 559.5 560.5 559.5 403.826 638.864 265.694 759.575 184.126L782 170.5Z" stroke="#000000" stroke-width="20.625" stroke-linecap="butt" stroke-linejoin="miter" stroke-miterlimit="8" stroke-opacity="1" fill="#5A932B" fill-rule="evenodd" fill-opacity="0.6"/><path d="M550.734 106C629.044 106 702.72 125.85 767.011 160.795L782 169.907 759.578 183.536C638.884 265.123 559.531 403.289 559.531 560 559.531 716.711 638.884 854.877 759.578 936.464L782 950.094 767.011 959.205C702.72 994.15 629.044 1014 550.734 1014 300.144 1014 96.9999 810.737 96.9999 560 96.9999 309.263 300.144 106 550.734 106Z" fill="#B15FD5" fill-rule="evenodd" fill-opacity="0.4"/><path d="M1013.27 106C1263.86 106 1467 309.263 1467 560 1467 810.737 1263.86 1014 1013.27 1014 934.956 1014 861.28 994.15 796.989 959.205L782 950.094 804.422 936.464C925.116 854.877 1004.47 716.711 1004.47 560 1004.47 403.289 925.116 265.123 804.422 183.536L782 169.907 796.989 160.795C861.28 125.85 934.956 106 1013.27 106Z" fill="#5A932B" fill-rule="evenodd" fill-opacity="0.4"/></g></g></svg>