<svg width="1375" height="912" xmlns="http://www.w3.org/2000/svg" xmlns:xlink="http://www.w3.org/1999/xlink" xml:space="preserve" overflow="hidden"><g transform="translate(-1540 -449)"><g><path d="M2228.5 513 2250.93 526.626C2371.64 608.194 2451 746.326 2451 903 2451 1059.67 2371.64 1197.81 2250.93 1279.37L2228.5 1293 2206.08 1279.37C2085.36 1197.81 2006 1059.67 2006 903 2006 746.326 2085.36 608.194 2206.08 526.626Z" fill="#B15FD5" fill-rule="evenodd" fill-opacity="0.6"/><path d="M1997.73 450C2076.04 450 2149.72 469.828 2214.01 504.735L2229 513.836 2206.58 527.451C2085.88 608.948 2006.53 746.962 2006.53 903.5 2006.53 1060.04 2085.88 1198.05 2206.58 1279.55L2229 1293.16 2214.01 1302.27C2149.72 1337.17 2076.04 1357 1997.73 1357 1747.14 1357 1544 1153.96 1544 903.5 1544 653.039 1747.14 450 1997.73 450Z" fill="#D19FE6" fill-rule="evenodd" fill-opacity="1"/><path d="M2460.27 450C2710.86 450 2914 653.039 2914 903.5 2914 1153.96 2710.86 1357 2460.27 1357 2381.96 1357 2308.28 1337.17 2243.99 1302.27L2229 1293.16 2251.42 1279.55C2372.12 1198.05 2451.47 1060.04 2451.47 903.5 2451.47 746.962 2372.12 608.948 2251.42 527.451L2229 513.836 2243.99 504.735C2308.28 469.828 2381.96 450 2460.27 450Z" fill="#B3A7B7" fill-rule="evenodd" fill-opacity="1"/><path d="M2229 513.5 2251.42 527.126C2372.14 608.694 2451.5 746.827 2451.5 903.5 2451.5 1060.17 2372.14 1198.31 2251.42 1279.87L2229 1293.5 2206.58 1279.87C2085.86 1198.31 2006.5 1060.17 2006.5 903.5 2006.5 746.827 2085.86 608.694 2206.58 527.126L2229 513.5Z" stroke="#000000" stroke-width="20.625" stroke-linecap="butt" stroke-linejoin="miter" stroke-miterlimit="8" stroke-opacity="1" fill="#986CA9" fill-rule="evenodd" fill-opacity="1"/></g></g></svg>