<svg width="1375" height="912" xmlns="http://www.w3.org/2000/svg" xmlns:xlink="http://www.w3.org/1999/xlink" xml:space="preserve" overflow="hidden"><g transform="translate(-2988 -449)"><g><path d="M3676.5 513 3698.93 526.626C3819.64 608.194 3899 746.326 3899 903 3899 1059.67 3819.64 1197.81 3698.93 1279.37L3676.5 1293 3654.08 1279.37C3533.36 1197.81 3454 1059.67 3454 903 3454 746.326 3533.36 608.194 3654.08 526.626Z" fill="#B15FD5" fill-rule="evenodd" fill-opacity="0.6"/><path d="M3445.73 450C3524.04 450 3597.72 469.828 3662.01 504.735L3677 513.836 3654.58 527.451C3533.88 608.948 3454.53 746.962 3454.53 903.5 3454.53 1060.04 3533.88 1198.05 3654.58 1279.55L3677 1293.16 3662.01 1302.27C3597.72 1337.17 3524.04 1357 3445.73 1357 3195.14 1357 2992 1153.96 2992 903.5 2992 653.039 3195.14 450 3445.73 450Z" fill="#9CBE84" fill-rule="evenodd" fill-opacity="1"/><path d="M3908.27 450C4158.86 450 4362 653.039 4362 903.5 4362 1153.96 4158.86 1357 3908.27 1357 3829.96 1357 3756.28 1337.17 3691.99 1302.27L3677 1293.16 3699.42 1279.55C3820.12 1198.05 3899.47 1060.04 3899.47 903.5 3899.47 746.962 3820.12 608.948 3699.42 527.451L3677 513.836 3691.99 504.735C3756.28 469.828 3829.96 450 3908.27 450Z" fill="#AEB6A6" fill-rule="evenodd" fill-opacity="1"/><path d="M3677 513.5 3699.42 527.126C3820.14 608.694 3899.5 746.827 3899.5 903.5 3899.5 1060.17 3820.14 1198.31 3699.42 1279.87L3677 1293.5 3654.58 1279.87C3533.86 1198.31 3454.5 1060.17 3454.5 903.5 3454.5 746.827 3533.86 608.694 3654.58 527.126L3677 513.5Z" stroke="#000000" stroke-width="20.625" stroke-linecap="butt" stroke-linejoin="miter" stroke-miterlimit="8" stroke-opacity="1" fill="#748F5A" fill-rule="evenodd" fill-opacity="1"/></g></g></svg>